<?xml version="1.0" encoding="UTF-8" standalone="no"?>
<svg
   height="24px"
   viewBox="0 -960 960 960"
   width="24px"
   fill="#5985E1"
   version="1.1"
   id="svg1"
   sodipodi:docname="logo.svg"
   inkscape:version="1.3.2 (091e20ef0f, 2023-11-25, custom)"
   xmlns:inkscape="http://www.inkscape.org/namespaces/inkscape"
   xmlns:sodipodi="http://sodipodi.sourceforge.net/DTD/sodipodi-0.dtd"
   xmlns="http://www.w3.org/2000/svg"
   xmlns:svg="http://www.w3.org/2000/svg">
  <defs
     id="defs1" />
  <sodipodi:namedview
     id="namedview1"
     pagecolor="#ffffff"
     bordercolor="#000000"
     borderopacity="0.25"
     inkscape:showpageshadow="2"
     inkscape:pageopacity="0.0"
     inkscape:pagecheckerboard="0"
     inkscape:deskcolor="#d1d1d1"
     inkscape:zoom="14.701928"
     inkscape:cx="8.5022862"
     inkscape:cy="12.753429"
     inkscape:window-width="1366"
     inkscape:window-height="703"
     inkscape:window-x="0"
     inkscape:window-y="0"
     inkscape:window-maximized="1"
     inkscape:current-layer="svg1" />
  <rect
     style="fill:#aa0000;fill-opacity:0.997367;stroke-width:1151.46;stroke-linejoin:round"
     id="rect1"
     width="960"
     height="960"
     x="-1.3474121e-07"
     y="-960"
     ry="91.937752" />
  <path
     d="m 492.22679,-342.65377 q 68.18606,0 115.9163,-43.83391 47.73025,-43.8339 47.73025,-106.17544 0,-55.52293 -35.55416,-93.99935 -35.55416,-38.47644 -86.20667,-38.47644 -45.78207,0 -77.43989,29.22261 -31.65781,29.2226 -31.65781,72.0824 0,18.50765 7.30566,36.04121 7.30564,17.53356 20.94286,32.14487 l 55.52294,-55.52295 q -2.92226,-1.94817 -4.3834,-4.87043 -1.46112,-2.92225 -1.46112,-6.81861 0,-10.71495 8.76677,-17.04653 8.76678,-6.33155 22.40399,-6.33155 19.48174,0 32.14487,16.07243 12.66313,16.07242 12.66313,38.47643 0,30.19667 -24.83922,51.13955 -24.83921,20.94285 -60.88041,20.94285 -45.78209,0 -77.4399,-37.01529 -31.65782,-37.01529 -31.65782,-90.59006 0,-28.24851 10.71497,-54.0618 10.71495,-25.81329 30.19668,-45.29503 l -55.52294,-55.52294 q -31.17077,30.19669 -47.73025,70.13424 -16.55946,39.93755 -16.55946,83.77146 0,85.71962 54.54886,145.62594 54.54883,59.90634 132.47577,59.90634 z M 247.73104,-90.36534 v -167.54291 q -55.52293,-50.65251 -86.20666,-118.35153 -30.68373,-67.69901 -30.68373,-142.70367 0,-146.11301 102.2791,-248.3921 102.27909,-102.27911 248.39208,-102.27911 121.76083,0 215.7602,71.59538 93.99936,71.59536 122.24786,186.5376 l 50.65252,199.68775 q 4.87042,18.50764 -6.81861,33.60598 -11.68904,15.09834 -31.17076,15.09834 h -77.92695 v 116.89041 q 0,32.14485 -22.89104,55.03589 -22.89103,22.89104 -55.03587,22.89104 h -77.92694 v 77.92693 z"
     id="path1"
     style="fill:#f9f9f9;stroke-width:0.974087" />
</svg>
